<svg width="497" height="330" viewBox="0 0 497 330" fill="none" xmlns="http://www.w3.org/2000/svg">
<path d="M433.685 171.987C400.493 100.517 328.079 50.959 244.09 50.959C162.112 50.959 91.1611 98.1723 56.9458 166.891" stroke="#1B1E21" stroke-width="2" stroke-linecap="round" stroke-dasharray="22.93 22.93"/>
<path d="M162.555 7.69076C164.666 7.69076 166.377 5.96913 166.377 3.84538C166.377 1.72164 164.666 0 162.555 0C160.445 0 158.733 1.72164 158.733 3.84538C158.733 5.96913 160.445 7.69076 162.555 7.69076Z" fill="#FF9933"/>
<path opacity="0.51" d="M137.076 174.582C139.186 174.582 140.898 172.86 140.898 170.736C140.898 168.613 139.186 166.891 137.076 166.891C134.965 166.891 133.254 168.613 133.254 170.736C133.254 172.86 134.965 174.582 137.076 174.582Z" fill="#0A95E6"/>
<path d="M401.559 79.309C404.095 79.309 406.151 77.2405 406.151 74.6889C406.151 72.1373 404.095 70.0688 401.559 70.0688C399.023 70.0688 396.967 72.1373 396.967 74.6889C396.967 77.2405 399.023 79.309 401.559 79.309Z" fill="#99CC33"/>
<path d="M49.2986 213.298L35.5931 204.215C3.2165 182.757 -8.74861 139.846 6.68629 106.164L49.2987 94.26L91.911 106.164C107.346 139.846 95.3808 182.757 63.0042 204.215L49.2986 213.298Z" fill="#93C431"/>
<path d="M57.7154 220.596L45.0788 212.221C13.745 191.454 2.02401 150.082 16.4954 117.403L57.7154 105.888L98.9354 117.403C113.407 150.082 101.686 191.454 70.352 212.221L57.7154 220.596Z" stroke="#1B1E21" stroke-width="3.87"/>
<rect x="37.983" y="149.077" width="34.6551" height="27.4406" rx="4.89567" fill="white" stroke="#1B1E21" stroke-width="3.82193"/>
<path d="M64.9301 149.571V144.761C64.9301 139.449 60.6235 135.142 55.3109 135.142V135.142C49.9983 135.142 45.6917 139.449 45.6917 144.761V149.571" stroke="#1B1E21" stroke-width="3.82193"/>
<circle cx="55.3106" cy="160.392" r="3.60722" fill="#1B1E21"/>
<path d="M55.3108 162.797L55.3108 165.202" stroke="#1B1E21" stroke-width="3.82193" stroke-linecap="round"/>
<path d="M380.023 135.175C380.023 130.633 383.705 126.952 388.246 126.952L415.371 126.952C419.912 126.952 423.593 130.633 423.593 135.175L423.593 170.771C423.593 175.312 419.912 178.994 415.371 178.994L380.023 178.994L380.023 135.175Z" fill="white"/>
<rect x="372.761" y="118.48" width="114.977" height="88.3504" rx="11.7468" fill="#ABE3F5"/>
<rect x="380.023" y="126.952" width="114.977" height="88.3504" rx="11.7468" stroke="#1B1E21" stroke-width="3.87"/>
<mask id="path-14-inside-1_3153_37499" fill="white">
<rect x="392.126" y="158.419" width="15.1102" height="42.3084" rx="3.52405"/>
</mask>
<rect x="392.126" y="158.419" width="15.1102" height="42.3084" rx="3.52405" fill="#0A95E6" stroke="#1B1E21" stroke-width="7.64387" mask="url(#path-14-inside-1_3153_37499)"/>
<mask id="path-15-inside-2_3153_37499" fill="white">
<rect x="462.322" y="158.419" width="14.1028" height="42.3084" rx="3.52405"/>
</mask>
<rect x="462.322" y="158.419" width="14.1028" height="42.3084" rx="3.52405" fill="white" stroke="#1B1E21" stroke-width="7.64387" mask="url(#path-15-inside-2_3153_37499)"/>
<mask id="path-16-inside-3_3153_37499" fill="white">
<rect x="438.826" y="170.15" width="14.1028" height="30.2203" rx="3.52405"/>
</mask>
<rect x="438.826" y="170.15" width="14.1028" height="30.2203" rx="3.52405" fill="#FF9933" stroke="#1B1E21" stroke-width="7.64387" mask="url(#path-16-inside-3_3153_37499)"/>
<mask id="path-17-inside-4_3153_37499" fill="white">
<rect x="415.657" y="139.894" width="15.1102" height="60.4406" rx="3.52405"/>
</mask>
<rect x="415.657" y="139.894" width="15.1102" height="60.4406" rx="3.52405" fill="#99CC33" stroke="#1B1E21" stroke-width="7.64387" mask="url(#path-17-inside-4_3153_37499)"/>
<rect x="196.153" y="16.5891" width="115.83" height="78.2635" rx="12.1194" fill="#0A95E6"/>
<rect x="186.761" y="28.0679" width="117.917" height="76.1765" rx="12.1194" stroke="#1B1E21" stroke-width="3.87"/>
<path d="M244.154 106.331V120.94" stroke="black" stroke-width="3.87" stroke-linecap="round"/>
<path d="M253.546 123.027L235.806 123.027" stroke="black" stroke-width="3.87" stroke-linecap="round"/>
<circle cx="245.197" cy="53.112" r="10.6112" fill="#ABE3F5" stroke="#1B1E21" stroke-width="3.82193"/>
<path d="M267.287 79.721C267.287 81.8031 265.669 83.813 261.63 85.3818C257.687 86.913 252.08 87.724 245.719 87.724C239.359 87.724 233.751 86.913 229.809 85.3818C225.769 83.813 224.151 81.8031 224.151 79.721C224.151 77.4991 225.956 74.9974 229.987 72.9375C233.915 70.93 239.474 69.6322 245.719 69.6322C251.965 69.6322 257.524 70.93 261.452 72.9375C265.482 74.9974 267.287 77.4991 267.287 79.721Z" fill="#ABE3F5" stroke="#1B1E21" stroke-width="3.82193"/>
<path d="M310.047 98.505C310.047 106.43 303.846 112.744 296.329 112.744C288.813 112.744 282.612 106.43 282.612 98.505C282.612 90.5805 288.813 84.2656 296.329 84.2656C303.846 84.2656 310.047 90.5805 310.047 98.505Z" fill="white" stroke="#1B1E21" stroke-width="3.87"/>
<path d="M307.589 109.962L318.944 122.902" stroke="black" stroke-width="3.87" stroke-linecap="round"/>
<rect x="180.391" y="187.275" width="132.494" height="131.22" rx="15.3063" fill="white" stroke="#1B1E21" stroke-width="3.87"/>
<path fill-rule="evenodd" clip-rule="evenodd" d="M207.145 215.302V239.587C207.145 245.055 208.951 250.1 212 254.159C208.951 258.217 207.145 263.263 207.145 268.73L207.145 293.015H226.573L226.573 268.73C226.573 266.047 228.747 263.873 231.43 263.873H260.572C263.254 263.873 265.429 266.047 265.429 268.73L265.429 293.015H284.857V268.73C284.857 263.263 283.051 258.217 280.002 254.159C283.051 250.1 284.857 245.055 284.857 239.587V215.302H265.429V239.587C265.429 242.269 263.257 244.442 260.576 244.444C260.575 244.444 260.573 244.444 260.572 244.444H231.43C228.747 244.444 226.573 242.27 226.573 239.587V215.302H207.145Z" fill="#70A300"/>
<rect x="236.287" y="215.302" width="19.4282" height="19.4282" fill="#4D6802"/>
<rect x="236.287" y="273.587" width="19.4282" height="19.4282" fill="#4D6802"/>
</svg>
